<svg width="234" height="211" viewBox="0 0 234 211" fill="none" xmlns="http://www.w3.org/2000/svg">
<path fill-rule="evenodd" clip-rule="evenodd" d="M204.404 1.21895H172.392V2.90689C175.812 4.59485 175.812 10.0693 175.812 14.1296V14.4489V40.5895V76.9492V77.2686C175.812 81.3288 175.812 86.8033 172.392 88.4913V90.1792H193.551V88.4913C190.131 86.8033 190.131 81.3288 190.131 77.2686V76.9492V56.1918V49.0294H204.496C207.141 49.0294 234 48.8469 234 25.8541C234 2.86129 214.3 0.990845 204.45 1.21895H204.404ZM204.45 43.8286H190.085V6.64776H203.31C211.61 6.64776 218.678 12.1223 218.678 25.8997C218.678 39.6771 210.105 43.8286 204.45 43.8286Z" fill="black"/>
<path fill-rule="evenodd" clip-rule="evenodd" d="M157.436 79.1385L127.521 1.62898L127.43 1.40088H120.726L91.039 79.0016C89.9446 82.1038 87.026 87.4871 83.5146 88.4907V90.2699H98.7458V88.5363C95.5992 87.0308 94.8696 84.4305 96.1465 80.9633L103.58 61.3464H135.319L142.661 80.9633C143.938 84.4305 143.162 87.0764 140.061 88.5363V90.2699H163.911V88.5363C160.719 87.3502 158.302 81.4195 157.39 79.2297L157.436 79.1385ZM105.586 55.9175L119.404 19.7404L133.221 55.9175H105.632H105.586Z" fill="black"/>
<path fill-rule="evenodd" clip-rule="evenodd" d="M83.5261 45.8492L83.6433 44.7098C83.6433 44.7098 75.443 44.9377 70.4317 44.9377C65.4204 44.9377 57.1745 44.7098 57.1745 44.7098V45.8492C59.2701 46.9886 63.5525 50.5435 63.7347 55.6936C63.917 60.8892 63.6892 82.173 63.6892 82.173C63.6892 82.173 59.4068 87.4142 47.8808 87.4142C28.7467 87.4142 16.5829 69.9132 16.5829 47.9001C16.5829 12.5789 34.6236 5.51465 47.653 5.51465C60.6824 5.51465 66.494 10.3913 73.2365 20.0078C73.8743 20.9193 74.421 21.8308 74.9677 22.7879H76.7186V2.09647H74.9677C73.1454 3.87393 69.2016 4.1474 66.0126 3.60049C65.1015 3.46377 63.8258 3.09917 62.2769 2.64341C58.359 1.5496 52.7554 0 47.2885 0C36.5826 0 26.7877 3.19033 18.8607 9.20633C14.1228 12.8068 10.1593 17.4099 7.10695 22.56C2.4601 30.2167 0 39.1951 0 48.2647C0 75.519 21.0019 92.6099 47.9263 92.6099C70.4317 92.6099 77.1286 83.7227 77.1286 83.7227C77.1286 83.7227 76.9008 60.8436 77.1286 55.6479C77.3564 50.4523 81.4304 46.943 83.5261 45.8492Z" fill="black"/>
<path d="M215.188 210.04C219.469 210.04 222.94 206.568 222.94 202.285C222.94 198.002 219.469 194.529 215.188 194.529C210.906 194.529 207.436 198.002 207.436 202.285C207.436 206.568 210.906 210.04 215.188 210.04Z" fill="black"/>
<path fill-rule="evenodd" clip-rule="evenodd" d="M105.601 119.897C108.428 121.722 108.383 127.242 108.383 129.021V177.653L57.5364 118.437L57.4451 118.255H39.9795V119.943C44.3117 122.771 44.3117 127.881 44.3117 131.941V196.494C44.3117 198.273 44.3117 203.793 41.53 205.618V207.306H52.8393V205.618C50.012 203.793 50.0576 198.273 50.0576 196.494V134.222L110.435 207.26H114.129V129.021C114.129 127.242 114.129 121.722 116.91 119.897V118.209H105.601V119.897Z" fill="black"/>
<path fill-rule="evenodd" clip-rule="evenodd" d="M5.86914 119.897C9.28931 121.585 9.28931 127.059 9.28931 131.12V131.439V157.58V193.939V194.259C9.28931 198.319 9.28931 203.793 5.86914 205.481V207.169H27.0286V205.481C23.6084 203.793 23.6084 198.319 23.6084 194.259V193.939V131.439V131.12C23.6084 127.059 23.6084 121.585 27.0286 119.897V118.209H5.86914V119.897Z" fill="black"/>
<path fill-rule="evenodd" clip-rule="evenodd" d="M185.977 119.589C187.528 120.046 188.805 120.365 189.717 120.547C193.825 121.369 196.967 120.73 198.791 118.951H200.433V139.708H198.791C198.244 138.75 197.697 137.838 197.059 136.925C190.309 127.299 183.287 122.418 172.205 122.418C163.063 122.418 156.777 125.243 151.63 130.843C150.473 132.021 149.226 133.559 148.013 135.472C147.163 136.74 146.411 138.1 145.756 139.526C145.706 139.661 145.658 139.796 145.61 139.931C143.18 145.266 141.317 152.458 141.317 161.681C141.317 167.119 141.806 171.817 142.583 175.825C143.981 182.123 147.078 190.788 152.711 195.438L152.707 195.45C157.425 199.507 164.504 203.098 174.019 203.182C174.208 203.191 174.405 203.196 174.61 203.196C185.682 203.196 194.034 196.546 198.356 191.427L202.3 195.06C196.652 202.567 188.808 207.957 177.781 209.796L177.78 209.79C176.061 210.077 174.3 210.241 172.531 210.241C167.689 210.241 162.362 209.512 156.997 207.718C152.188 206.281 147.728 204.087 143.749 201.068C139.007 197.464 124.87 186.378 124.87 163.385C124.87 140.392 138.961 129.763 143.749 126.159C151.73 120.137 161.124 116.943 171.84 116.943C176.7 116.943 180.984 118.167 184.629 119.207L184.629 119.207C185.089 119.338 185.538 119.467 185.977 119.589Z" fill="black"/>
</svg>
